<?xml version="1.0" encoding="iso-8859-1"?>
<!-- Generator: Adobe Illustrator 19.0.0, SVG Export Plug-In . SVG Version: 6.00 Build 0)  -->
<svg version="1.1" id="Capa_1" xmlns="http://www.w3.org/2000/svg" xmlns:xlink="http://www.w3.org/1999/xlink" x="0px" y="0px"
	 viewBox="0 0 512 512" style="enable-background:new 0 0 512 512;" xml:space="preserve">
<circle style="fill:#2896FF;" cx="256" cy="256" r="256"/>
<path style="fill:#1E73BE;" d="M363.693,140.96l-15.533-15.533H107.803v261.146l124.308,124.308
	C239.979,511.609,247.943,512,256,512c137.815,0,250.175-108.905,255.763-245.348L404.196,159.086l-33.401-26.676L363.693,140.96z"
	/>
<g>
	<polygon style="fill:#FFFFFF;" points="339.265,356.888 137.489,356.888 137.489,155.112 323.501,155.112 348.161,125.427 
		107.804,125.427 107.804,386.573 368.95,386.573 368.95,240.727 339.265,276.333 	"/>
	<polygon style="fill:#FFFFFF;" points="182.147,203.701 152.318,233.53 256.618,337.83 299.578,288.564 299.578,288.564 
		404.196,159.086 370.795,132.41 253.555,273.547 	"/>
</g>
<g>
</g>
<g>
</g>
<g>
</g>
<g>
</g>
<g>
</g>
<g>
</g>
<g>
</g>
<g>
</g>
<g>
</g>
<g>
</g>
<g>
</g>
<g>
</g>
<g>
</g>
<g>
</g>
<g>
</g>
</svg>
